<svg xmlns="http://www.w3.org/2000/svg" viewBox="0 0 1200 300">
  <!-- Background -->
  <rect width="1200" height="300" fill="#0d1117" />
  
  <!-- Subtle grid pattern -->
  <pattern id="grid" width="40" height="40" patternUnits="userSpaceOnUse">
    <path d="M 40 0 L 0 0 0 40" fill="none" stroke="#30363d" stroke-width="0.5" />
  </pattern>
  <rect width="1200" height="300" fill="url(#grid)" />
  
  <!-- GitHub-style decorative elements -->
  <circle cx="150" cy="150" r="80" fill="none" stroke="#58a6ff" stroke-width="1.5" opacity="0.6" />
  <circle cx="1050" cy="150" r="60" fill="none" stroke="#58a6ff" stroke-width="1.5" opacity="0.6" />
  
  <!-- Main text area moved down -->
  <text x="600" y="180" font-family="Arial, sans-serif" font-size="48" font-weight="bold" fill="#e6edf3" text-anchor="middle">Ankit Lakhlan</text>
  
  <!-- Subtitle/tagline moved down -->
  <text x="600" y="230" font-family="Arial, sans-serif" font-size="22" fill="#8b949e" text-anchor="middle">Developer • Automation Enthusiast</text>
  
  <!-- Subtle connecting line moved down -->
  <line x1="420" y1="200" x2="780" y2="200" stroke="#30363d" stroke-width="1.5" />
  
  <!-- GitHub icon moved up -->
  <path d="M600,70 C582.4,70 568,84.3 568,102 C568,116.2 577.3,128.1 590.1,132.3 C592.1,132.6 592.9,131.4 592.9,130.3 C592.9,129.3 592.9,127.1 592.8,124.2 C583.4,126.4 581.2,119.8 581.2,119.8 C579.5,115.4 577,114.2 577,114.2 C573.6,111.8 577.3,111.9 577.3,111.9 C581.1,112.2 583.1,116 583.1,116 C586.5,121.7 592.4,120 593,119 C593.3,116.1 594.3,114.1 595.4,113 C587.7,111.9 579.6,108.9 579.6,96.6 C579.6,92.4 581.1,89 583.2,86.4 C582.9,85.4 581.6,81.8 583.5,77.4 C583.5,77.4 586.7,76.3 592.8,80.4 C595.1,79.5 597.6,79 600,79 C602.4,79 604.9,79.5 607.2,80.4 C613.3,76.3 616.5,77.4 616.5,77.4 C618.4,81.8 617.1,85.4 616.8,86.4 C618.9,89 620.4,92.4 620.4,96.6 C620.4,108.9 612.3,111.9 604.5,113 C605.9,114.4 607.1,117.2 607.1,121.5 C607.1,127.6 607,128.9 607,130.3 C607,131.4 607.8,132.7 609.9,132.3 C622.7,128.1 632,116.2 632,102 C632,84.3 617.6,70 600,70 Z" fill="#e6edf3" />
</svg>